  0
SECTION
  2
HEADER
  9
$ACADVER
  1
AC1009
  9
$DWGCODEPAGE
  3
undefined
  9
$INSBASE
 10
0.0
 20
0.0
 30
0.0
  9
$EXTMIN
 10
0.0
 20
-36.30407171401426
 30
0.0
  9
$EXTMAX
 10
395.0790716243205
 20
333.6957383063329
 30
67.70112629780122
  9
$LIMMIN
 10
0.0
 20
0.0
  9
$LIMMAX
 10
420.0
 20
297.0
  9
$ORTHOMODE
 70
     0
  9
$REGENMODE
 70
     1
  9
$FILLMODE
 70
     1
  9
$QTEXTMODE
 70
     0
  9
$MIRRTEXT
 70
     1
  9
$DRAGMODE
 70
     2
  9
$LTSCALE
 40
1.0
  9
$OSMODE
 70
    37
  9
$ATTMODE
 70
     1
  9
$TEXTSIZE
 40
2.5
  9
$TRACEWID
 40
1.0
  9
$TEXTSTYLE
  7
STANDARD
  9
$CLAYER
  8
0
  9
$CELTYPE
  6
BYLAYER
  9
$CECOLOR
 62
   256
  9
$DIMSCALE
 40
1.0
  9
$DIMASZ
 40
2.5
  9
$DIMEXO
 40
0.625
  9
$DIMDLI
 40
3.75
  9
$DIMRND
 40
0.0
  9
$DIMDLE
 40
0.0
  9
$DIMEXE
 40
1.25
  9
$DIMTP
 40
0.0
  9
$DIMTM
 40
0.0
  9
$DIMTXT
 40
2.5
  9
$DIMCEN
 40
2.5
  9
$DIMTSZ
 40
0.0
  9
$DIMTOL
 70
     0
  9
$DIMLIM
 70
     0
  9
$DIMTIH
 70
     0
  9
$DIMTOH
 70
     0
  9
$DIMSE1
 70
     0
  9
$DIMSE2
 70
     0
  9
$DIMTAD
 70
     1
  9
$DIMZIN
 70
     8
  9
$DIMBLK
  1

  9
$DIMASO
 70
     1
  9
$DIMSHO
 70
     1
  9
$DIMPOST
  1

  9
$DIMAPOST
  1

  9
$DIMALT
 70
     0
  9
$DIMALTD
 70
     3
  9
$DIMALTF
 40
0.03937007874016
  9
$DIMLFAC
 40
1.0
  9
$DIMTOFL
 70
     1
  9
$DIMTVP
 40
0.0
  9
$DIMTIX
 70
     0
  9
$DIMSOXD
 70
     0
  9
$DIMSAH
 70
     0
  9
$DIMBLK1
  1

  9
$DIMBLK2
  1

  9
$DIMSTYLE
  2
ISO-25
  9
$DIMCLRD
 70
     0
  9
$DIMCLRE
 70
     0
  9
$DIMCLRT
 70
     0
  9
$DIMTFAC
 40
1.0
  9
$DIMGAP
 40
0.625
  9
$LUNITS
 70
     2
  9
$LUPREC
 70
     4
  9
$SKETCHINC
 40
1.0
  9
$FILLETRAD
 40
10.0
  9
$AUNITS
 70
     0
  9
$AUPREC
 70
     0
  9
$MENU
  1
.
  9
$ELEVATION
 40
0.0
  9
$PELEVATION
 40
0.0
  9
$THICKNESS
 40
0.0
  9
$LIMCHECK
 70
     0
  9
$CHAMFERA
 40
10.0
  9
$CHAMFERB
 40
10.0
  9
$SKPOLY
 70
     0
  9
$TDCREATE
 40
1798821.988622685
  9
$TDUPDATE
 40
2456258.946956007
  9
$TDINDWG
 40
0.0000000116
  9
$TDUSRTIMER
 40
0.0000000116
  9
$USRTIMER
 70
     1
  9
$ANGBASE
 50
0.0
  9
$ANGDIR
 70
     0
  9
$PDMODE
 70
     0
  9
$PDSIZE
 40
0.0
  9
$PLINEWID
 40
0.0
  9
$COORDS
 70
     1
  9
$SPLFRAME
 70
     0
  9
$SPLINETYPE
 70
     6
  9
$SPLINESEGS
 70
     8
  9
$ATTDIA
 70
     0
  9
$ATTREQ
 70
     1
  9
$HANDLING
 70
     1
  9
$HANDSEED
  5
146
  9
$SURFTAB1
 70
     6
  9
$SURFTAB2
 70
     6
  9
$SURFTYPE
 70
     6
  9
$SURFU
 70
     6
  9
$SURFV
 70
     6
  9
$UCSNAME
  2

  9
$UCSORG
 10
0.0
 20
0.0
 30
0.0
  9
$UCSXDIR
 10
1.0
 20
0.0
 30
0.0
  9
$UCSYDIR
 10
0.0
 20
1.0
 30
0.0
  9
$PUCSNAME
  2

  9
$PUCSORG
 10
0.0
 20
0.0
 30
0.0
  9
$PUCSXDIR
 10
1.0
 20
0.0
 30
0.0
  9
$PUCSYDIR
 10
0.0
 20
1.0
 30
0.0
  9
$USERI1
 70
     0
  9
$USERI2
 70
     0
  9
$USERI3
 70
     0
  9
$USERI4
 70
     0
  9
$USERI5
 70
     0
  9
$USERR1
 40
0.0
  9
$USERR2
 40
0.0
  9
$USERR3
 40
0.0
  9
$USERR4
 40
0.0
  9
$USERR5
 40
0.0
  9
$WORLDVIEW
 70
     1
  9
$SHADEDGE
 70
     3
  9
$SHADEDIF
 70
    70
  9
$TILEMODE
 70
     1
  9
$MAXACTVP
 70
    64
  9
$PLIMCHECK
 70
     0
  9
$PEXTMIN
 10
1.000000000000000E+20
 20
1.000000000000000E+20
 30
1.000000000000000E+20
  9
$PEXTMAX
 10
-1.000000000000000E+20
 20
-1.000000000000000E+20
 30
-1.000000000000000E+20
  9
$PLIMMIN
 10
0.0
 20
0.0
  9
$PLIMMAX
 10
420.0
 20
297.0
  9
$UNITMODE
 70
     0
  9
$VISRETAIN
 70
     1
  9
$PLINEGEN
 70
     0
  9
$PSLTSCALE
 70
     1
  0
ENDSEC
  0
SECTION
  2
TABLES
  0
TABLE
  2
VPORT
 70
     1
  0
VPORT
  2
*ACTIVE
 70
     0
 10
0.0
 20
0.0
 11
1.0
 21
1.0
 12
210.0791666141469
 22
148.6958332961593
 13
0.0
 23
0.0
 14
10.0
 24
10.0
 15
10.0
 25
10.0
 16
0.0
 26
0.0
 36
1.0
 17
0.0
 27
0.0
 37
0.0
 40
377.3998062207542
 41
1.0
 42
50.0
 43
0.0
 44
0.0
 50
0.0
 51
0.0
 71
     0
 72
   100
 73
     1
 74
     3
 75
     0
 76
     0
 77
     0
 78
     0
  0
ENDTAB
  0
TABLE
  2
LTYPE
 70
    11
  0
LTYPE
  2
CONTINUOUS
 70
     0
  3
Solid line
 72
    65
 73
     0
 40
0.0
  0
LTYPE
  2
BORDER
 70
     0
  3
__ __ . __ __ . __ 
 72
    65
 73
     6
 40
0.875
 49
0.25
 49
-0.125
 49
0.25
 49
-0.125
 49
0.0
 49
-0.125
  0
LTYPE
  2
CENTER
 70
     0
  3
___ _ ___ _ ___ _ _
 72
    65
 73
     4
 40
1.125
 49
0.75
 49
-0.125
 49
0.125
 49
-0.125
  0
LTYPE
  2
DASHDOT
 70
     0
  3
_._._._._._._._._._
 72
    65
 73
     4
 40
0.5
 49
0.25
 49
-0.125
 49
0.0
 49
-0.125
  0
LTYPE
  2
DASHED
 70
     0
  3
_ _ _ _ _ _ _ _ _ _
 72
    65
 73
     2
 40
0.375
 49
0.25
 49
-0.125
  0
LTYPE
  2
DIVIDE
 70
     0
  3
__..__..__..__..__.
 72
    65
 73
     6
 40
0.625
 49
0.25
 49
-0.125
 49
0.0
 49
-0.125
 49
0.0
 49
-0.125
  0
LTYPE
  2
DOT
 70
     0
  3
...................
 72
    65
 73
     2
 40
0.125
 49
0.0
 49
-0.125
  0
LTYPE
  2
HIDDEN
 70
     0
  3
__ __ __ __ __ __ _
 72
    65
 73
     2
 40
0.1875
 49
0.125
 49
-0.0625
  0
LTYPE
  2
PHANTOM
 70
     0
  3
___ _ _ ___ _ _ ___
 72
    65
 73
     6
 40
1.25
 49
0.625
 49
-0.125
 49
0.125
 49
-0.125
 49
0.125
 49
-0.125
  0
LTYPE
  2
CUTTING
 70
     0
  3
________ _ _ ______
 72
    65
 73
     6
 40
1.4675
 49
1.0
 49
-0.0725
 49
0.125
 49
-0.0725
 49
0.125
 49
-0.0725
  0
LTYPE
  2
STITCH
 70
     0
  3
_ _ _ _ _ _ _ _ _ _
 72
    65
 73
     2
 40
0.145
 49
0.0725
 49
-0.0725
  0
ENDTAB
  0
TABLE
  2
LAYER
 70
     6
  0
LAYER
  2
0
 70
     0
 62
     7
  6
CONTINUOUS
  0
LAYER
  2
LAYER1
 70
     0
 62
     7
  6
CONTINUOUS
  0
LAYER
  2
DXF_I3-PLATE
 70
     0
 62
     7
  6
CONTINUOUS
  0
LAYER
  2
DXF_I3-PLATE_MODEL
 70
     0
 62
     7
  6
CONTINUOUS
  0
LAYER
  2
DXF_I3-PLATE_MODEL_LAYER_1
 70
     0
 62
     5
  6
CONTINUOUS
  0
LAYER
  2
DXF_I3-PLATE_MODEL_LAYER_0
 70
     0
 62
   150
  6
CONTINUOUS
  0
ENDTAB
  0
TABLE
  2
STYLE
 70
     1
  0
STYLE
  2
STANDARD
 70
     0
 40
0.0
 41
1.0
 50
0.0
 71
     0
 42
2.5
  3
txt
  4

  0
ENDTAB
  0
TABLE
  2
VIEW
 70
     0
  0
ENDTAB
  0
TABLE
  2
UCS
 70
     0
  0
ENDTAB
  0
TABLE
  2
APPID
 70
     2
  0
APPID
  2
ACAD
 70
     0
  0
APPID
  2
ENCORE_SOFTWARE_VIACAD
 70
     0
  0
ENDTAB
  0
TABLE
  2
DIMSTYLE
 70
     1
  0
DIMSTYLE
  2
ISO-25
 70
     0
  3

  4

  5

  6

  7

 40
1.0
 41
2.5
 42
0.625
 43
3.75
 44
1.25
 45
0.0
 46
0.0
 47
0.0
 48
0.0
140
2.5
141
2.5
142
0.0
143
0.03937007874016
144
1.0
145
0.0
146
1.0
147
0.625
 71
     0
 72
     0
 73
     0
 74
     0
 75
     0
 76
     0
 77
     1
 78
     8
170
     0
171
     3
172
     1
173
     0
174
     0
175
     0
176
     0
177
     0
178
     0
  0
ENDTAB
  0
ENDSEC
  0
SECTION
  2
BLOCKS
  0
BLOCK
  8
0
  2
$MODEL_SPACE
 70
     0
 10
0.0
 20
0.0
 30
0.0
  3
$MODEL_SPACE
  1

  0
ENDBLK
  5
21
  8
0
  0
BLOCK
 67
     1
  8
0
  2
$PAPER_SPACE
 70
     0
 10
0.0
 20
0.0
 30
0.0
  3
$PAPER_SPACE
  1

  0
ENDBLK
  5
1D
 67
     1
  8
0
  0
ENDSEC
  0
SECTION
  2
ENTITIES
  0
LINE
  5
50
  8
DXF_I3-PLATE_MODEL_LAYER_1
 62
     5
 10
395.0790716243205
 20
-31.30420463627117
 30
0.0
 11
390.0792045465774
 21
-36.30407171401426
 31
0.0
  0
LINE
  5
51
  8
DXF_I3-PLATE_MODEL_LAYER_1
 62
     5
 10
390.0792045465774
 20
-36.30407171401426
 30
0.0
 11
30.07912868171633
 21
-36.30407171401426
 31
0.0
  0
LINE
  5
52
  8
DXF_I3-PLATE_MODEL_LAYER_1
 62
     5
 10
30.07912868171633
 20
-36.30407171401426
 30
0.0
 11
25.07926160397324
 21
-31.30420463627117
 31
0.0
  0
LINE
  5
53
  8
DXF_I3-PLATE_MODEL_LAYER_1
 62
     5
 10
25.07926160397324
 20
-31.30420463627117
 30
0.0
 11
25.07926160397324
 21
-11.30404730620177
 31
0.0
  0
LINE
  5
54
  8
DXF_I3-PLATE_MODEL_LAYER_1
 62
     5
 10
25.07926160397324
 20
-11.30404730620177
 30
0.0
 11
27.07913953316077
 21
-9.304169377014237
 31
0.0
  0
LINE
  5
55
  8
DXF_I3-PLATE_MODEL_LAYER_1
 62
     5
 10
27.07913953316077
 20
-9.304169377014237
 30
0.0
 11
27.07913953316077
 21
306.695835969333
 31
0.0
  0
LINE
  5
56
  8
DXF_I3-PLATE_MODEL_LAYER_1
 62
     5
 10
27.07913953316077
 20
306.695835969333
 30
0.0
 11
25.07926160397324
 21
308.6958861532948
 31
0.0
  0
LINE
  5
57
  8
DXF_I3-PLATE_MODEL_LAYER_1
 62
     5
 10
25.07926160397324
 20
308.6958861532948
 30
0.0
 11
25.07926160397324
 21
328.6958712285899
 31
0.0
  0
LINE
  5
58
  8
DXF_I3-PLATE_MODEL_LAYER_1
 62
     5
 10
25.07926160397324
 20
328.6958712285899
 30
0.0
 11
29.88723686318792
 21
333.6957383063329
 31
0.0
  0
LINE
  5
59
  8
DXF_I3-PLATE_MODEL_LAYER_1
 62
     5
 10
29.88723686318792
 20
333.6957383063329
 30
0.0
 11
390.0792045465774
 21
333.6957383063329
 31
0.0
  0
LINE
  5
5A
  8
DXF_I3-PLATE_MODEL_LAYER_1
 62
     5
 10
390.0792045465774
 20
333.6957383063329
 30
0.0
 11
395.0790716243205
 21
328.6958712285899
 31
0.0
  0
LINE
  5
5B
  8
DXF_I3-PLATE_MODEL_LAYER_1
 62
     5
 10
395.0790716243205
 20
328.6958712285899
 30
0.0
 11
395.0790716243205
 21
-31.30420463627115
 31
0.0
  0
LINE
  5
5C
  8
DXF_I3-PLATE_MODEL_LAYER_1
 62
     5
 10
84.56951495281595
 20
-25.55606281913182
 30
0.0
 11
133.8026855134243
 21
-25.55606281913182
 31
0.0
  0
LINE
  5
5D
  8
DXF_I3-PLATE_MODEL_LAYER_1
 62
     5
 10
380.4598622952458
 20
273.6957830804476
 30
0.0
 11
364.6616879285356
 21
273.6957830804476
 31
0.0
  0
LINE
  5
5E
  8
DXF_I3-PLATE_MODEL_LAYER_1
 62
     5
 10
364.6616879285356
 20
273.6957830804476
 30
0.0
 11
364.6616879285356
 21
270.8299804010425
 31
0.0
  0
LINE
  5
5F
  8
DXF_I3-PLATE_MODEL_LAYER_1
 62
     5
 10
364.6616879285356
 20
270.8299804010425
 30
0.0
 11
380.4598622952458
 21
270.8299804010425
 31
0.0
  0
LINE
  5
60
  8
DXF_I3-PLATE_MODEL_LAYER_1
 62
     5
 10
380.4598622952458
 20
270.8299804010425
 30
0.0
 11
380.4598622952458
 21
273.6957830804476
 31
0.0
  0
LINE
  5
61
  8
DXF_I3-PLATE_MODEL_LAYER_1
 62
     5
 10
386.191467654056
 20
270.8299804010425
 30
0.0
 11
386.191467654056
 21
273.6957830804476
 31
0.0
  0
LINE
  5
62
  8
DXF_I3-PLATE_MODEL_LAYER_1
 62
     5
 10
386.191467654056
 20
273.6957830804476
 30
0.0
 11
383.3258372294252
 21
273.6957830804476
 31
0.0
  0
LINE
  5
63
  8
DXF_I3-PLATE_MODEL_LAYER_1
 62
     5
 10
383.3258372294252
 20
273.6957830804476
 30
0.0
 11
383.3258372294252
 21
270.8299804010425
 31
0.0
  0
LINE
  5
64
  8
DXF_I3-PLATE_MODEL_LAYER_1
 62
     5
 10
383.3258372294252
 20
270.8299804010425
 30
0.0
 11
386.191467654056
 21
270.8299804010425
 31
0.0
  0
LINE
  5
65
  8
DXF_I3-PLATE_MODEL_LAYER_1
 62
     5
 10
54.07904187016079
 20
52.69583603283299
 30
0.0
 11
39.079096127383
 21
52.69583603283299
 31
0.0
  0
LINE
  5
66
  8
DXF_I3-PLATE_MODEL_LAYER_1
 62
     5
 10
39.079096127383
 20
52.69583603283299
 30
0.0
 11
39.079096127383
 21
46.69585773572187
 31
0.0
  0
LINE
  5
67
  8
DXF_I3-PLATE_MODEL_LAYER_1
 62
     5
 10
39.079096127383
 20
46.69585773572187
 30
0.0
 11
54.07904187016079
 21
46.69585773572187
 31
0.0
  0
LINE
  5
68
  8
DXF_I3-PLATE_MODEL_LAYER_1
 62
     5
 10
54.07904187016079
 20
46.69585773572187
 30
0.0
 11
54.07904187016079
 21
52.69583603283299
 31
0.0
  0
LINE
  5
69
  8
DXF_I3-PLATE_MODEL_LAYER_1
 62
     5
 10
378.7128543746757
 20
260.0559610352464
 30
0.0
 11
378.1213314798582
 21
260.7082898653784
 31
0.0
  0
LINE
  5
6A
  8
DXF_I3-PLATE_MODEL_LAYER_1
 62
     5
 10
378.1213314798582
 20
260.7082898653784
 30
0.0
 11
377.3330936328331
 21
262.5722587776729
 31
0.0
  0
LINE
  5
6B
  8
DXF_I3-PLATE_MODEL_LAYER_1
 62
     5
 10
377.3330936328331
 20
262.5722587776729
 30
0.0
 11
377.0705773568571
 21
265.1817463529754
 31
0.0
  0
LINE
  5
6C
  8
DXF_I3-PLATE_MODEL_LAYER_1
 62
     5
 10
377.0705773568571
 20
265.1817463529754
 30
0.0
 11
377.0557634462706
 21
266.185474922603
 31
0.0
  0
LINE
  5
6D
  8
DXF_I3-PLATE_MODEL_LAYER_1
 62
     5
 10
377.0557634462706
 20
266.185474922603
 30
0.0
 11
375.1209978217541
 21
266.185474922603
 31
0.0
  0
LINE
  5
6E
  8
DXF_I3-PLATE_MODEL_LAYER_1
 62
     5
 10
375.1209978217541
 20
266.185474922603
 30
0.0
 11
375.1209978217541
 21
265.0508327245359
 31
0.0
  0
LINE
  5
6F
  8
DXF_I3-PLATE_MODEL_LAYER_1
 62
     5
 10
375.1209978217541
 20
265.0508327245359
 30
0.0
 11
374.8374664633181
 21
262.2694348845195
 31
0.0
  0
LINE
  5
70
  8
DXF_I3-PLATE_MODEL_LAYER_1
 62
     5
 10
374.8374664633181
 20
262.2694348845195
 30
0.0
 11
373.9865278784614
 21
260.2828205729501
 31
0.0
  0
LINE
  5
71
  8
DXF_I3-PLATE_MODEL_LAYER_1
 62
     5
 10
373.9865278784614
 20
260.2828205729501
 30
0.0
 11
373.3481516850446
 21
259.5876003040268
 31
0.0
  0
LINE
  5
72
  8
DXF_I3-PLATE_MODEL_LAYER_1
 62
     5
 10
373.3481516850446
 20
259.5876003040268
 30
0.0
 11
372.568182067184
 21
259.0908175350537
 31
0.0
  0
LINE
  5
73
  8
DXF_I3-PLATE_MODEL_LAYER_1
 62
     5
 10
372.568182067184
 20
259.0908175350537
 30
0.0
 11
371.6462745153312
 21
258.7928167755796
 31
0.0
  0
LINE
  5
74
  8
DXF_I3-PLATE_MODEL_LAYER_1
 62
     5
 10
371.6462745153312
 20
258.7928167755796
 30
0.0
 11
370.582429029486
 21
258.6935980256044
 31
0.0
  0
LINE
  5
75
  8
DXF_I3-PLATE_MODEL_LAYER_1
 62
     5
 10
370.582429029486
 20
258.6935980256044
 30
0.0
 11
368.8529910958907
 21
259.0153699439267
 31
0.0
  0
LINE
  5
76
  8
DXF_I3-PLATE_MODEL_LAYER_1
 62
     5
 10
368.8529910958907
 20
259.0153699439267
 30
0.0
 11
367.4763309399848
 21
259.9810302084422
 31
0.0
  0
LINE
  5
77
  8
DXF_I3-PLATE_MODEL_LAYER_1
 62
     5
 10
367.4763309399848
 20
259.9810302084422
 30
0.0
 11
366.5764719992375
 21
261.459320681163
 31
0.0
  0
LINE
  5
78
  8
DXF_I3-PLATE_MODEL_LAYER_1
 62
     5
 10
366.5764719992375
 20
261.459320681163
 30
0.0
 11
366.2764041824722
 21
263.3196722431979
 31
0.0
  0
LINE
  5
79
  8
DXF_I3-PLATE_MODEL_LAYER_1
 62
     5
 10
366.2764041824722
 20
263.3196722431979
 30
0.0
 11
366.5819841520139
 21
265.4216972535231
 31
0.0
  0
LINE
  5
7A
  8
DXF_I3-PLATE_MODEL_LAYER_1
 62
     5
 10
366.5819841520139
 20
265.4216972535231
 30
0.0
 11
367.4983795510903
 21
268.1784626608199
 31
0.0
  0
LINE
  5
7B
  8
DXF_I3-PLATE_MODEL_LAYER_1
 62
     5
 10
367.4983795510903
 20
268.1784626608199
 30
0.0
 11
364.8215403590514
 21
268.1784626608199
 31
0.0
  0
LINE
  5
7C
  8
DXF_I3-PLATE_MODEL_LAYER_1
 62
     5
 10
364.8215403590514
 20
268.1784626608199
 30
0.0
 11
364.2978858452932
 21
265.3998208971917
 31
0.0
  0
LINE
  5
7D
  8
DXF_I3-PLATE_MODEL_LAYER_1
 62
     5
 10
364.2978858452932
 20
265.3998208971917
 30
0.0
 11
364.1232195041911
 21
263.1450059020957
 31
0.0
  0
LINE
  5
7E
  8
DXF_I3-PLATE_MODEL_LAYER_1
 62
     5
 10
364.1232195041911
 20
263.1450059020957
 30
0.0
 11
364.2317400119765
 21
261.4856756616251
 31
0.0
  0
LINE
  5
7F
  8
DXF_I3-PLATE_MODEL_LAYER_1
 62
     5
 10
364.2317400119765
 20
261.4856756616251
 30
0.0
 11
364.556268006687
 21
260.0137586155521
 31
0.0
  0
LINE
  5
80
  8
DXF_I3-PLATE_MODEL_LAYER_1
 62
     5
 10
364.556268006687
 20
260.0137586155521
 30
0.0
 11
365.0971479978712
 21
258.7290825091025
 31
0.0
  0
LINE
  5
81
  8
DXF_I3-PLATE_MODEL_LAYER_1
 62
     5
 10
365.0971479978712
 20
258.7290825091025
 30
0.0
 11
365.8543799855291
 21
257.6316473422762
 31
0.0
  0
LINE
  5
82
  8
DXF_I3-PLATE_MODEL_LAYER_1
 62
     5
 10
365.8543799855291
 20
257.6316473422762
 30
0.0
 11
366.8017812439729
 21
256.7533202483117
 31
0.0
  0
LINE
  5
83
  8
DXF_I3-PLATE_MODEL_LAYER_1
 62
     5
 10
366.8017812439729
 20
256.7533202483117
 30
0.0
 11
367.9128245379659
 21
256.1259683604477
 31
0.0
  0
LINE
  5
84
  8
DXF_I3-PLATE_MODEL_LAYER_1
 62
     5
 10
367.9128245379659
 20
256.1259683604477
 30
0.0
 11
369.1875098675084
 21
255.7495916786841
 31
0.0
  0
LINE
  5
85
  8
DXF_I3-PLATE_MODEL_LAYER_1
 62
     5
 10
369.1875098675084
 20
255.7495916786841
 30
0.0
 11
370.6258372326002
 21
255.6240179482468
 31
0.0
  0
LINE
  5
86
  8
DXF_I3-PLATE_MODEL_LAYER_1
 62
     5
 10
370.6258372326002
 20
255.6240179482468
 30
0.0
 11
372.6680898362563
 21
255.9495794716029
 31
0.0
  0
LINE
  5
87
  8
DXF_I3-PLATE_MODEL_LAYER_1
 62
     5
 10
372.6680898362563
 20
255.9495794716029
 30
0.0
 11
374.2993425485221
 21
256.926091786897
 31
0.0
  0
LINE
  5
88
  8
DXF_I3-PLATE_MODEL_LAYER_1
 62
     5
 10
374.2993425485221
 20
256.926091786897
 30
0.0
 11
375.5192508598491
 21
258.553554894129
 31
0.0
  0
LINE
  5
89
  8
DXF_I3-PLATE_MODEL_LAYER_1
 62
     5
 10
375.5192508598491
 20
258.553554894129
 30
0.0
 11
376.3285037893342
 21
260.8319687932989
 31
0.0
  0
LINE
  5
8A
  8
DXF_I3-PLATE_MODEL_LAYER_1
 62
     5
 10
376.3285037893342
 20
260.8319687932989
 30
0.0
 11
377.2724599522927
 21
258.8653360355441
 31
0.0
  0
LINE
  5
8B
  8
DXF_I3-PLATE_MODEL_LAYER_1
 62
     5
 10
377.2724599522927
 20
258.8653360355441
 30
0.0
 11
378.4889231681344
 21
257.4605983514335
 31
0.0
  0
LINE
  5
8C
  8
DXF_I3-PLATE_MODEL_LAYER_1
 62
     5
 10
378.4889231681344
 20
257.4605983514335
 30
0.0
 11
379.9778934368594
 21
256.6179279957414
 31
0.0
  0
LINE
  5
8D
  8
DXF_I3-PLATE_MODEL_LAYER_1
 62
     5
 10
379.9778934368594
 20
256.6179279957414
 30
0.0
 11
381.7400597775647
 21
256.3369804589191
 31
0.0
  0
LINE
  5
8E
  8
DXF_I3-PLATE_MODEL_LAYER_1
 62
     5
 10
381.7400597775647
 20
256.3369804589191
 30
0.0
 11
382.909669694807
 21
256.4401610687025
 31
0.0
  0
LINE
  5
8F
  8
DXF_I3-PLATE_MODEL_LAYER_1
 62
     5
 10
382.909669694807
 20
256.4401610687025
 30
0.0
 11
383.9232167865675
 21
256.7497028980521
 31
0.0
  0
LINE
  5
90
  8
DXF_I3-PLATE_MODEL_LAYER_1
 62
     5
 10
383.9232167865675
 20
256.7497028980521
 30
0.0
 11
384.7807010528462
 21
257.2656059469683
 31
0.0
  0
LINE
  5
91
  8
DXF_I3-PLATE_MODEL_LAYER_1
 62
     5
 10
384.7807010528462
 20
257.2656059469683
 30
0.0
 11
385.4824670031916
 21
257.9880424702252
 31
0.0
  0
LINE
  5
92
  8
DXF_I3-PLATE_MODEL_LAYER_1
 62
     5
 10
385.4824670031916
 20
257.9880424702252
 30
0.0
 11
386.0281701280551
 21
258.9168402130486
 31
0.0
  0
LINE
  5
93
  8
DXF_I3-PLATE_MODEL_LAYER_1
 62
     5
 10
386.0281701280551
 20
258.9168402130486
 30
0.0
 11
386.4181549369854
 21
260.0519991754384
 31
0.0
  0
LINE
  5
94
  8
DXF_I3-PLATE_MODEL_LAYER_1
 62
     5
 10
386.4181549369854
 20
260.0519991754384
 30
0.0
 11
386.7299360784006
 21
262.9414007589174
 31
0.0
  0
LINE
  5
95
  8
DXF_I3-PLATE_MODEL_LAYER_1
 62
     5
 10
386.7299360784006
 20
262.9414007589174
 30
0.0
 11
386.5153066296694
 21
265.3781167956346
 31
0.0
  0
LINE
  5
96
  8
DXF_I3-PLATE_MODEL_LAYER_1
 62
     5
 10
386.5153066296694
 20
265.3781167956346
 30
0.0
 11
385.8714182834763
 21
267.8875243470906
 31
0.0
  0
LINE
  5
97
  8
DXF_I3-PLATE_MODEL_LAYER_1
 62
     5
 10
385.8714182834763
 20
267.8875243470906
 30
0.0
 11
383.3692454325393
 21
267.8875243470906
 31
0.0
  0
LINE
  5
98
  8
DXF_I3-PLATE_MODEL_LAYER_1
 62
     5
 10
383.3692454325393
 20
267.8875243470906
 30
0.0
 11
384.2749610356116
 21
265.4070555977107
 31
0.0
  0
LINE
  5
99
  8
DXF_I3-PLATE_MODEL_LAYER_1
 62
     5
 10
384.2749610356116
 20
265.4070555977107
 30
0.0
 11
384.5767514001194
 21
263.1450059020957
 31
0.0
  0
LINE
  5
9A
  8
DXF_I3-PLATE_MODEL_LAYER_1
 62
     5
 10
384.5767514001194
 20
263.1450059020957
 30
0.0
 11
384.3703901805529
 21
261.4265922740531
 31
0.0
  0
LINE
  5
9B
  8
DXF_I3-PLATE_MODEL_LAYER_1
 62
     5
 10
384.3703901805529
 20
261.4265922740531
 30
0.0
 11
383.7513065218535
 21
260.1992770074328
 31
0.0
  0
LINE
  5
9C
  8
DXF_I3-PLATE_MODEL_LAYER_1
 62
     5
 10
383.7513065218535
 20
260.1992770074328
 30
0.0
 11
382.7195004240212
 21
259.4627155926864
 31
0.0
  0
LINE
  5
9D
  8
DXF_I3-PLATE_MODEL_LAYER_1
 62
     5
 10
382.7195004240212
 20
259.4627155926864
 30
0.0
 11
381.2746273775074
 21
259.2172525393624
 31
0.0
  0
LINE
  5
9E
  8
DXF_I3-PLATE_MODEL_LAYER_1
 62
     5
 10
381.2746273775074
 20
259.2172525393624
 30
0.0
 11
379.4352908979325
 21
259.5900118708664
 31
0.0
  0
LINE
  5
9F
  8
DXF_I3-PLATE_MODEL_LAYER_1
 62
     5
 10
379.4352908979325
 20
259.5900118708664
 30
0.0
 11
378.7128543746757
 21
260.0559610352464
 31
0.0
  0
LINE
  5
A0
  8
DXF_I3-PLATE_MODEL_LAYER_1
 62
     5
 10
36.5789903337372
 20
317.3670192348944
 30
0.0
 11
36.5789903337372
 21
320.4958549545983
 31
0.0
  0
LINE
  5
A1
  8
DXF_I3-PLATE_MODEL_LAYER_1
 62
     5
 10
36.5789903337372
 20
320.4958549545983
 30
0.0
 11
33.57900118518163
 21
320.4958549545983
 31
0.0
  0
LINE
  5
A2
  8
DXF_I3-PLATE_MODEL_LAYER_1
 62
     5
 10
33.57900118518163
 20
320.4958549545983
 30
0.0
 11
33.57900118518163
 21
317.3670192348944
 31
0.0
  0
LINE
  5
A3
  8
DXF_I3-PLATE_MODEL_LAYER_1
 62
     5
 10
348.0790119572511
 20
50.69595810364545
 30
0.0
 11
348.0790119572511
 21
46.69585773572187
 31
0.0
  0
LINE
  5
A4
  8
DXF_I3-PLATE_MODEL_LAYER_1
 62
     5
 10
348.0790119572511
 20
46.69585773572187
 30
0.0
 11
345.0790228086955
 21
43.6958685871663
 31
0.0
  0
LINE
  5
A5
  8
DXF_I3-PLATE_MODEL_LAYER_1
 62
     5
 10
345.0790228086955
 20
43.6958685871663
 30
0.0
 11
341.0792669503205
 21
43.6958685871663
 31
0.0
  0
LINE
  5
A6
  8
DXF_I3-PLATE_MODEL_LAYER_1
 62
     5
 10
341.0792669503205
 20
43.6958685871663
 30
0.0
 11
301.0789522901817
 21
83.6958387377566
 31
0.0
  0
LINE
  5
A7
  8
DXF_I3-PLATE_MODEL_LAYER_1
 62
     5
 10
301.0789522901817
 20
83.6958387377566
 30
0.0
 11
281.0791394696608
 21
83.6958387377566
 31
0.0
  0
LINE
  5
A8
  8
DXF_I3-PLATE_MODEL_LAYER_1
 62
     5
 10
281.0791394696608
 20
83.6958387377566
 30
0.0
 11
241.0791693190705
 21
43.6958685871663
 31
0.0
  0
LINE
  5
A9
  8
DXF_I3-PLATE_MODEL_LAYER_1
 62
     5
 10
241.0791693190705
 20
43.6958685871663
 30
0.0
 11
235.0791910219594
 21
43.6958685871663
 31
0.0
  0
LINE
  5
AA
  8
DXF_I3-PLATE_MODEL_LAYER_1
 62
     5
 10
235.0791910219594
 20
43.6958685871663
 30
0.0
 11
195.0792208713691
 21
83.6958387377566
 31
0.0
  0
LINE
  5
AB
  8
DXF_I3-PLATE_MODEL_LAYER_1
 62
     5
 10
195.0792208713691
 20
83.6958387377566
 30
0.0
 11
175.0790635412997
 21
83.6958387377566
 31
0.0
  0
LINE
  5
AC
  8
DXF_I3-PLATE_MODEL_LAYER_1
 62
     5
 10
175.0790635412997
 20
83.6958387377566
 30
0.0
 11
135.0790933907094
 21
43.6958685871663
 31
0.0
  0
LINE
  5
AD
  8
DXF_I3-PLATE_MODEL_LAYER_1
 62
     5
 10
135.0790933907094
 20
43.6958685871663
 30
0.0
 11
131.0793375323343
 21
43.6958685871663
 31
0.0
  0
LINE
  5
AE
  8
DXF_I3-PLATE_MODEL_LAYER_1
 62
     5
 10
131.0793375323343
 20
43.6958685871663
 30
0.0
 11
128.0793483837788
 21
46.69585773572187
 31
0.0
  0
LINE
  5
AF
  8
DXF_I3-PLATE_MODEL_LAYER_1
 62
     5
 10
128.0793483837788
 20
46.69585773572187
 30
0.0
 11
128.0793483837788
 21
50.69595810364545
 31
0.0
  0
LINE
  5
B0
  8
DXF_I3-PLATE_MODEL_LAYER_1
 62
     5
 10
128.0793483837788
 20
50.69595810364545
 30
0.0
 11
153.0793727915913
 21
75.69598251145794
 31
0.0
  0
LINE
  5
B1
  8
DXF_I3-PLATE_MODEL_LAYER_1
 62
     5
 10
153.0793727915913
 20
75.69598251145794
 30
0.0
 11
153.0793727915913
 21
231.6955904911213
 31
0.0
  0
LINE
  5
B2
  8
DXF_I3-PLATE_MODEL_LAYER_1
 62
     5
 10
153.0793727915913
 20
231.6955904911213
 30
0.0
 11
128.0793483837788
 21
256.6956148989337
 31
0.0
  0
LINE
  5
B3
  8
DXF_I3-PLATE_MODEL_LAYER_1
 62
     5
 10
128.0793483837788
 20
256.6956148989337
 30
0.0
 11
128.0793483837788
 21
260.6957152668572
 31
0.0
  0
LINE
  5
B4
  8
DXF_I3-PLATE_MODEL_LAYER_1
 62
     5
 10
128.0793483837788
 20
260.6957152668572
 30
0.0
 11
131.0793375323343
 21
263.6957044154129
 31
0.0
  0
LINE
  5
B5
  8
DXF_I3-PLATE_MODEL_LAYER_1
 62
     5
 10
131.0793375323343
 20
263.6957044154129
 30
0.0
 11
135.0790933907094
 21
263.6957044154129
 31
0.0
  0
LINE
  5
B6
  8
DXF_I3-PLATE_MODEL_LAYER_1
 62
     5
 10
135.0790933907094
 20
263.6957044154129
 30
0.0
 11
155.0792507207788
 21
243.6955470853435
 31
0.0
  0
LINE
  5
B7
  8
DXF_I3-PLATE_MODEL_LAYER_1
 62
     5
 10
155.0792507207788
 20
243.6955470853435
 30
0.0
 11
175.0790635412997
 21
243.6955470853435
 31
0.0
  0
LINE
  5
B8
  8
DXF_I3-PLATE_MODEL_LAYER_1
 62
     5
 10
175.0790635412997
 20
243.6955470853435
 30
0.0
 11
195.0792208713691
 21
263.6957044154129
 31
0.0
  0
LINE
  5
B9
  8
DXF_I3-PLATE_MODEL_LAYER_1
 62
     5
 10
195.0792208713691
 20
263.6957044154129
 30
0.0
 11
213.0791557627024
 21
263.6957044154129
 31
0.0
  0
LINE
  5
BA
  8
DXF_I3-PLATE_MODEL_LAYER_1
 62
     5
 10
213.0791557627024
 20
263.6957044154129
 30
0.0
 11
233.0789685832233
 21
243.6955470853435
 31
0.0
  0
LINE
  5
BB
  8
DXF_I3-PLATE_MODEL_LAYER_1
 62
     5
 10
233.0789685832233
 20
243.6955470853435
 30
0.0
 11
243.079047248258
 21
243.6955470853435
 31
0.0
  0
LINE
  5
BC
  8
DXF_I3-PLATE_MODEL_LAYER_1
 62
     5
 10
243.079047248258
 20
243.6955470853435
 30
0.0
 11
263.0792045783274
 21
263.6957044154129
 31
0.0
  0
LINE
  5
BD
  8
DXF_I3-PLATE_MODEL_LAYER_1
 62
     5
 10
263.0792045783274
 20
263.6957044154129
 30
0.0
 11
281.0791394696608
 21
263.6957044154129
 31
0.0
  0
LINE
  5
BE
  8
DXF_I3-PLATE_MODEL_LAYER_1
 62
     5
 10
281.0791394696608
 20
263.6957044154129
 30
0.0
 11
301.0789522901817
 21
243.6955470853435
 31
0.0
  0
LINE
  5
BF
  8
DXF_I3-PLATE_MODEL_LAYER_1
 62
     5
 10
301.0789522901817
 20
243.6955470853435
 30
0.0
 11
321.0791096202511
 21
243.6955470853435
 31
0.0
  0
LINE
  5
C0
  8
DXF_I3-PLATE_MODEL_LAYER_1
 62
     5
 10
321.0791096202511
 20
243.6955470853435
 30
0.0
 11
341.0792669503205
 21
263.6957044154129
 31
0.0
  0
LINE
  5
C1
  8
DXF_I3-PLATE_MODEL_LAYER_1
 62
     5
 10
341.0792669503205
 20
263.6957044154129
 30
0.0
 11
345.0790228086955
 21
263.6957044154129
 31
0.0
  0
LINE
  5
C2
  8
DXF_I3-PLATE_MODEL_LAYER_1
 62
     5
 10
345.0790228086955
 20
263.6957044154129
 30
0.0
 11
348.0790119572511
 21
260.6957152668572
 31
0.0
  0
LINE
  5
C3
  8
DXF_I3-PLATE_MODEL_LAYER_1
 62
     5
 10
348.0790119572511
 20
260.6957152668572
 30
0.0
 11
348.0790119572511
 21
256.6956148989337
 31
0.0
  0
LINE
  5
C4
  8
DXF_I3-PLATE_MODEL_LAYER_1
 62
     5
 10
348.0790119572511
 20
256.6956148989337
 30
0.0
 11
323.0789875494385
 21
231.6955904911213
 31
0.0
  0
LINE
  5
C5
  8
DXF_I3-PLATE_MODEL_LAYER_1
 62
     5
 10
323.0789875494385
 20
231.6955904911213
 30
0.0
 11
323.0789875494385
 21
75.69598251145796
 31
0.0
  0
LINE
  5
C6
  8
DXF_I3-PLATE_MODEL_LAYER_1
 62
     5
 10
323.0789875494385
 20
75.69598251145794
 30
0.0
 11
348.0790119572511
 21
50.69595810364545
 31
0.0
  0
LINE
  5
C7
  8
DXF_I3-PLATE_MODEL_LAYER_1
 62
     5
 10
313.0792533939525
 20
85.69606117649265
 30
0.0
 11
313.0792533939525
 21
221.6958563356351
 31
0.0
  0
LINE
  5
C8
  8
DXF_I3-PLATE_MODEL_LAYER_1
 62
     5
 10
313.0792533939525
 20
221.6958563356351
 30
0.0
 11
273.0789387338135
 21
181.6955416754963
 31
0.0
  0
LINE
  5
C9
  8
DXF_I3-PLATE_MODEL_LAYER_1
 62
     5
 10
273.0789387338135
 20
181.6955416754963
 30
0.0
 11
273.0789387338135
 21
125.6956868175344
 31
0.0
  0
LINE
  5
CA
  8
DXF_I3-PLATE_MODEL_LAYER_1
 62
     5
 10
273.0789387338135
 20
125.6956868175344
 30
0.0
 11
313.0792533939525
 21
85.69606117649265
 31
0.0
  0
LINE
  5
CB
  8
DXF_I3-PLATE_MODEL_LAYER_1
 62
     5
 10
263.0792045783274
 20
213.6956555997879
 30
0.0
 11
243.079047248258
 21
233.6958129298573
 31
0.0
  0
LINE
  5
CC
  8
DXF_I3-PLATE_MODEL_LAYER_1
 62
     5
 10
243.079047248258
 20
233.6958129298573
 30
0.0
 11
233.0789685832233
 21
233.6958129298573
 31
0.0
  0
LINE
  5
CD
  8
DXF_I3-PLATE_MODEL_LAYER_1
 62
     5
 10
233.0789685832233
 20
233.6958129298573
 30
0.0
 11
213.0791557627024
 21
213.6956555997879
 31
0.0
  0
LINE
  5
CE
  8
DXF_I3-PLATE_MODEL_LAYER_1
 62
     5
 10
213.0791557627024
 20
213.6956555997879
 30
0.0
 11
213.0791557627024
 21
193.695842779267
 31
0.0
  0
LINE
  5
CF
  8
DXF_I3-PLATE_MODEL_LAYER_1
 62
     5
 10
213.0791557627024
 20
193.695842779267
 30
0.0
 11
233.0789685832233
 21
173.6956854491976
 31
0.0
  0
LINE
  5
D0
  8
DXF_I3-PLATE_MODEL_LAYER_1
 62
     5
 10
233.0789685832233
 20
173.6956854491976
 30
0.0
 11
243.079047248258
 21
173.6956854491976
 31
0.0
  0
LINE
  5
D1
  8
DXF_I3-PLATE_MODEL_LAYER_1
 62
     5
 10
243.079047248258
 20
173.6956854491976
 30
0.0
 11
263.0792045783274
 21
193.695842779267
 31
0.0
  0
LINE
  5
D2
  8
DXF_I3-PLATE_MODEL_LAYER_1
 62
     5
 10
263.0792045783274
 20
193.695842779267
 30
0.0
 11
263.0792045783274
 21
213.6956555997879
 31
0.0
  0
LINE
  5
D3
  8
DXF_I3-PLATE_MODEL_LAYER_1
 62
     5
 10
213.0791557627024
 20
103.695996067826
 30
0.0
 11
223.0792344277371
 21
93.69591740279132
 31
0.0
  0
LINE
  5
D4
  8
DXF_I3-PLATE_MODEL_LAYER_1
 62
     5
 10
223.0792344277371
 20
93.69591740279132
 30
0.0
 11
253.0791259132927
 21
93.69591740279132
 31
0.0
  0
LINE
  5
D5
  8
DXF_I3-PLATE_MODEL_LAYER_1
 62
     5
 10
253.0791259132927
 20
93.69591740279132
 30
0.0
 11
263.0792045783274
 21
103.695996067826
 31
0.0
  0
LINE
  5
D6
  8
DXF_I3-PLATE_MODEL_LAYER_1
 62
     5
 10
263.0792045783274
 20
103.695996067826
 30
0.0
 11
263.0792045783274
 21
113.6957302233122
 31
0.0
  0
LINE
  5
D7
  8
DXF_I3-PLATE_MODEL_LAYER_1
 62
     5
 10
263.0792045783274
 20
113.6957302233122
 30
0.0
 11
243.079047248258
 21
133.6958875533816
 31
0.0
  0
LINE
  5
D8
  8
DXF_I3-PLATE_MODEL_LAYER_1
 62
     5
 10
243.079047248258
 20
133.6958875533816
 30
0.0
 11
233.0789685832233
 21
133.6958875533816
 31
0.0
  0
LINE
  5
D9
  8
DXF_I3-PLATE_MODEL_LAYER_1
 62
     5
 10
233.0789685832233
 20
133.6958875533816
 30
0.0
 11
213.0791557627024
 21
113.6957302233122
 31
0.0
  0
LINE
  5
DA
  8
DXF_I3-PLATE_MODEL_LAYER_1
 62
     5
 10
213.0791557627024
 20
113.6957302233122
 30
0.0
 11
213.0791557627024
 21
103.695996067826
 31
0.0
  0
LINE
  5
DB
  8
DXF_I3-PLATE_MODEL_LAYER_1
 62
     5
 10
163.0791069470775
 20
85.69606117649265
 30
0.0
 11
203.0790770976677
 21
125.6956868175344
 31
0.0
  0
LINE
  5
DC
  8
DXF_I3-PLATE_MODEL_LAYER_1
 62
     5
 10
203.0790770976677
 20
125.6956868175344
 30
0.0
 11
203.0790770976677
 21
181.6955416754963
 31
0.0
  0
LINE
  5
DD
  8
DXF_I3-PLATE_MODEL_LAYER_1
 62
     5
 10
203.0790770976677
 20
181.6955416754963
 30
0.0
 11
163.0791069470775
 21
221.6958563356351
 31
0.0
  0
LINE
  5
DE
  8
DXF_I3-PLATE_MODEL_LAYER_1
 62
     5
 10
163.0791069470775
 20
221.6958563356351
 30
0.0
 11
163.0791069470775
 21
85.69606117649262
 31
0.0
  0
LINE
  5
DF
  8
DXF_I3-PLATE_MODEL_LAYER_1
 62
     5
 10
117.5790418542858
 20
112.0899712176372
 30
0.0
 11
117.5790418542858
 21
82.08973522253312
 31
0.0
  0
LINE
  5
E0
  8
DXF_I3-PLATE_MODEL_LAYER_1
 62
     5
 10
117.5790418542858
 20
82.08973522253312
 30
0.0
 11
112.5788302669942
 21
79.08974607397757
 31
0.0
  0
LINE
  5
E1
  8
DXF_I3-PLATE_MODEL_LAYER_1
 62
     5
 10
112.5788302669942
 20
79.08974607397757
 30
0.0
 11
111.5790635571747
 21
79.08974607397757
 31
0.0
  0
LINE
  5
E2
  8
DXF_I3-PLATE_MODEL_LAYER_1
 62
     5
 10
111.5790635571747
 20
79.08974607397757
 30
0.0
 11
111.5790635571747
 21
103.8905698355623
 31
0.0
  0
LINE
  5
E3
  8
DXF_I3-PLATE_MODEL_LAYER_1
 62
     5
 10
103.5788628213275
 20
103.8905698355623
 30
0.0
 11
103.5788628213275
 21
79.08974607397757
 31
0.0
  0
LINE
  5
E4
  8
DXF_I3-PLATE_MODEL_LAYER_1
 62
     5
 10
103.5788628213275
 20
79.08974607397757
 30
0.0
 11
91.57890622710528
 21
79.08974607397757
 31
0.0
  0
LINE
  5
E5
  8
DXF_I3-PLATE_MODEL_LAYER_1
 62
     5
 10
91.57890622710528
 20
79.08974607397757
 30
0.0
 11
91.5789062271052
 21
103.8905698355623
 31
0.0
  0
LINE
  5
E6
  8
DXF_I3-PLATE_MODEL_LAYER_1
 62
     5
 10
83.57905000080662
 20
103.8905698355623
 30
0.0
 11
83.57905000080662
 21
79.08974607397757
 31
0.0
  0
LINE
  5
E7
  8
DXF_I3-PLATE_MODEL_LAYER_1
 62
     5
 10
83.57905000080662
 20
79.08974607397757
 30
0.0
 11
82.5789387814386
 21
79.08974607397757
 31
0.0
  0
LINE
  5
E8
  8
DXF_I3-PLATE_MODEL_LAYER_1
 62
     5
 10
82.5789387814386
 20
79.08974607397757
 30
0.0
 11
77.57907170369552
 21
82.08973522253312
 31
0.0
  0
LINE
  5
E9
  8
DXF_I3-PLATE_MODEL_LAYER_1
 62
     5
 10
77.57907170369552
 20
82.08973522253312
 30
0.0
 11
77.57907170369552
 21
216.9082071397834
 31
0.0
  0
LINE
  5
EA
  8
DXF_I3-PLATE_MODEL_LAYER_1
 62
     5
 10
77.57907170369552
 20
216.9082071397834
 30
0.0
 11
79.57894963288304
 21
218.9080850689709
 31
0.0
  0
LINE
  5
EB
  8
DXF_I3-PLATE_MODEL_LAYER_1
 62
     5
 10
79.57894963288304
 20
218.9080850689709
 30
0.0
 11
88.87898489531499
 21
218.9080850689709
 31
0.0
  0
LINE
  5
EC
  8
DXF_I3-PLATE_MODEL_LAYER_1
 62
     5
 10
88.87898489531499
 20
218.9080850689709
 30
0.0
 11
88.87898489531499
 21
223.9082966562625
 31
0.0
  0
LINE
  5
ED
  8
DXF_I3-PLATE_MODEL_LAYER_1
 62
     5
 10
88.87898489531499
 20
223.9082966562625
 30
0.0
 11
89.87909611468301
 21
224.908063366082
 31
0.0
  0
LINE
  5
EE
  8
DXF_I3-PLATE_MODEL_LAYER_1
 62
     5
 10
89.87909611468301
 20
224.908063366082
 30
0.0
 11
102.4788438328872
 21
224.908063366082
 31
0.0
  0
LINE
  5
EF
  8
DXF_I3-PLATE_MODEL_LAYER_1
 62
     5
 10
102.4788438328872
 20
224.908063366082
 30
0.0
 11
103.4789550522553
 21
223.9082966562625
 31
0.0
  0
LINE
  5
F0
  8
DXF_I3-PLATE_MODEL_LAYER_1
 62
     5
 10
103.4789550522553
 20
223.9082966562625
 30
0.0
 11
103.4789550522553
 21
218.9080850689709
 31
0.0
  0
LINE
  5
F1
  8
DXF_I3-PLATE_MODEL_LAYER_1
 62
     5
 10
103.4789550522553
 20
218.9080850689709
 30
0.0
 11
113.5789414863622
 21
218.9080850689709
 31
0.0
  0
LINE
  5
F2
  8
DXF_I3-PLATE_MODEL_LAYER_1
 62
     5
 10
113.5789414863622
 20
218.9080850689709
 30
0.0
 11
115.5788194155497
 21
216.9082071397834
 31
0.0
  0
LINE
  5
F3
  8
DXF_I3-PLATE_MODEL_LAYER_1
 62
     5
 10
115.5788194155497
 20
216.9082071397834
 30
0.0
 11
115.5788194155497
 21
114.0898491468248
 31
0.0
  0
LINE
  5
F4
  8
DXF_I3-PLATE_MODEL_LAYER_1
 62
     5
 10
115.5788194155497
 20
114.0898491468248
 30
0.0
 11
117.5790418542858
 21
112.0899712176372
 31
0.0
  0
LINE
  5
F5
  8
DXF_I3-PLATE_MODEL_LAYER_1
 62
     5
 10
33.57900118518163
 20
306.8958237622518
 30
0.0
 11
36.5789903337372
 21
306.8958237622518
 31
0.0
  0
LINE
  5
F6
  8
DXF_I3-PLATE_MODEL_LAYER_1
 62
     5
 10
36.5789903337372
 20
306.8958237622518
 30
0.0
 11
36.5789903337372
 21
310.0246594819557
 31
0.0
  0
LINE
  5
F7
  8
DXF_I3-PLATE_MODEL_LAYER_1
 62
     5
 10
33.57900118518163
 20
310.0246594819557
 30
0.0
 11
33.57900118518165
 21
306.8958237622518
 31
0.0
  0
LINE
  5
F8
  8
DXF_I3-PLATE_MODEL_LAYER_1
 62
     5
 10
36.57899033373717
 20
-12.63316514441116
 30
0.0
 11
36.57899033373717
 21
-9.504329424707251
 31
0.0
  0
LINE
  5
F9
  8
DXF_I3-PLATE_MODEL_LAYER_1
 62
     5
 10
36.57899033373717
 20
-9.504329424707251
 30
0.0
 11
33.57900118518162
 21
-9.504329424707251
 31
0.0
  0
LINE
  5
FA
  8
DXF_I3-PLATE_MODEL_LAYER_1
 62
     5
 10
33.57900118518162
 20
-9.504329424707251
 30
0.0
 11
33.57900118518162
 21
-12.63316514441116
 31
0.0
  0
LINE
  5
FB
  8
DXF_I3-PLATE_MODEL_LAYER_1
 62
     5
 10
33.57900118518162
 20
-23.10436061705379
 30
0.0
 11
36.57899033373717
 21
-23.10436061705379
 31
0.0
  0
LINE
  5
FC
  8
DXF_I3-PLATE_MODEL_LAYER_1
 62
     5
 10
36.57899033373717
 20
-23.10436061705379
 30
0.0
 11
36.57899033373717
 21
-19.97552489734983
 31
0.0
  0
LINE
  5
FD
  8
DXF_I3-PLATE_MODEL_LAYER_1
 62
     5
 10
33.57900118518162
 20
-19.97552489734983
 30
0.0
 11
33.57900118518163
 21
-23.10436061705379
 31
0.0
  0
LINE
  5
FE
  8
DXF_I3-PLATE_MODEL_LAYER_1
 62
     5
 10
133.8026855134243
 20
-22.23705782864213
 30
0.0
 11
84.56951495281595
 21
-22.23705782864213
 31
0.0
  0
LINE
  5
FF
  8
DXF_I3-PLATE_MODEL_LAYER_1
 62
     5
 10
45.07907442449412
 20
229.695884816708
 30
0.0
 11
59.07925345745241
 21
229.695884816708
 31
0.0
  0
LINE
  5
100
  8
DXF_I3-PLATE_MODEL_LAYER_1
 62
     5
 10
59.07925345745241
 20
229.695884816708
 30
0.0
 11
65.07923175456352
 21
223.6959065195969
 31
0.0
  0
LINE
  5
101
  8
DXF_I3-PLATE_MODEL_LAYER_1
 62
     5
 10
65.07923175456352
 20
223.6959065195969
 30
0.0
 11
65.07923175456352
 21
178.695724781715
 31
0.0
  0
LINE
  5
102
  8
DXF_I3-PLATE_MODEL_LAYER_1
 62
     5
 10
65.07923175456352
 20
178.695724781715
 30
0.0
 11
40.07920734675103
 21
153.6957003739025
 31
0.0
  0
LINE
  5
103
  8
DXF_I3-PLATE_MODEL_LAYER_1
 62
     5
 10
40.07920734675103
 20
153.6957003739025
 30
0.0
 11
40.07920734675103
 21
143.6959662184163
 31
0.0
  0
LINE
  5
104
  8
DXF_I3-PLATE_MODEL_LAYER_1
 62
     5
 10
40.07920734675103
 20
143.6959662184163
 30
0.0
 11
65.07923175456352
 21
118.6959418106038
 31
0.0
  0
LINE
  5
105
  8
DXF_I3-PLATE_MODEL_LAYER_1
 62
     5
 10
65.07923175456352
 20
118.6959418106038
 30
0.0
 11
65.07923175456352
 21
73.6957600727219
 31
0.0
  0
LINE
  5
106
  8
DXF_I3-PLATE_MODEL_LAYER_1
 62
     5
 10
65.07923175456352
 20
73.6957600727219
 30
0.0
 11
59.07925345745241
 21
67.69578177561078
 31
0.0
  0
LINE
  5
107
  8
DXF_I3-PLATE_MODEL_LAYER_1
 62
     5
 10
59.07925345745241
 20
67.69578177561078
 30
0.0
 11
45.07907442449412
 21
67.69578177561078
 31
0.0
  0
LINE
  5
108
  8
DXF_I3-PLATE_MODEL_LAYER_1
 62
     5
 10
45.07907442449412
 20
59.69592554931213
 30
0.0
 11
59.07925345745241
 21
59.69592554931213
 31
0.0
  0
LINE
  5
109
  8
DXF_I3-PLATE_MODEL_LAYER_1
 62
     5
 10
59.07925345745241
 20
59.69592554931213
 30
0.0
 11
75.0789659100497
 21
43.6958685871663
 31
0.0
  0
LINE
  5
10A
  8
DXF_I3-PLATE_MODEL_LAYER_1
 62
     5
 10
75.0789659100497
 20
43.6958685871663
 30
0.0
 11
75.0789659100497
 21
23.69571125709691
 31
0.0
  0
LINE
  5
10B
  8
DXF_I3-PLATE_MODEL_LAYER_1
 62
     5
 10
75.0789659100497
 20
23.69571125709691
 30
0.0
 11
80.07917749734132
 21
18.69584417935382
 31
0.0
  0
LINE
  5
10C
  8
DXF_I3-PLATE_MODEL_LAYER_1
 62
     5
 10
80.07917749734132
 20
18.69584417935382
 30
0.0
 11
350.0788898864386
 21
18.69584417935382
 31
0.0
  0
LINE
  5
10D
  8
DXF_I3-PLATE_MODEL_LAYER_1
 62
     5
 10
350.0788898864386
 20
18.69584417935382
 30
0.0
 11
355.0791014737302
 21
23.69571125709691
 31
0.0
  0
LINE
  5
10E
  8
DXF_I3-PLATE_MODEL_LAYER_1
 62
     5
 10
355.0791014737302
 20
23.69571125709691
 30
0.0
 11
355.0791014737302
 21
273.6957830804476
 31
0.0
  0
LINE
  5
10F
  8
DXF_I3-PLATE_MODEL_LAYER_1
 62
     5
 10
355.0791014737302
 20
273.6957830804476
 30
0.0
 11
350.0788898864386
 21
278.695822412965
 31
0.0
  0
LINE
  5
110
  8
DXF_I3-PLATE_MODEL_LAYER_1
 62
     5
 10
350.0788898864386
 20
278.695822412965
 30
0.0
 11
80.07917749734132
 21
278.695822412965
 31
0.0
  0
LINE
  5
111
  8
DXF_I3-PLATE_MODEL_LAYER_1
 62
     5
 10
80.07917749734132
 20
278.695822412965
 30
0.0
 11
75.0789659100497
 21
273.6957830804476
 31
0.0
  0
LINE
  5
112
  8
DXF_I3-PLATE_MODEL_LAYER_1
 62
     5
 10
75.0789659100497
 20
273.6957830804476
 30
0.0
 11
75.0789659100497
 21
253.6957980051525
 31
0.0
  0
LINE
  5
113
  8
DXF_I3-PLATE_MODEL_LAYER_1
 62
     5
 10
75.0789659100497
 20
253.6957980051525
 30
0.0
 11
59.07925345745241
 21
237.6957410430066
 31
0.0
  0
LINE
  5
114
  8
DXF_I3-PLATE_MODEL_LAYER_1
 62
     5
 10
59.07925345745241
 20
237.6957410430066
 30
0.0
 11
45.07907442449412
 21
237.6957410430066
 31
0.0
  0
CIRCLE
  5
115
  8
DXF_I3-PLATE_MODEL_LAYER_0
 62
   150
 10
228.2790892901554
 20
168.695646116681
 30
0.0
 40
1.799890144512915
  0
CIRCLE
  5
116
  8
DXF_I3-PLATE_MODEL_LAYER_0
 62
   150
 10
218.7790892901554
 20
168.695646116681
 30
0.0
 40
1.799890144512943
  0
CIRCLE
  5
117
  8
DXF_I3-PLATE_MODEL_LAYER_0
 62
   150
 10
217.0792561306344
 20
153.69604488345
 30
0.0
 40
1.659157985695373
  0
CIRCLE
  5
118
  8
DXF_I3-PLATE_MODEL_LAYER_0
 62
   150
 10
258.1165445318404
 20
153.69604488345
 30
0.0
 40
1.659157985695344
  0
CIRCLE
  5
119
  8
DXF_I3-PLATE_MODEL_LAYER_0
 62
   150
 10
133.0792154314232
 20
258.6956650829
 30
0.0
 40
1.971628176306382
  0
CIRCLE
  5
11A
  8
DXF_I3-PLATE_MODEL_LAYER_0
 62
   150
 10
343.0791448494014
 20
258.6956650829
 30
0.0
 40
1.971628176306467
  0
CIRCLE
  5
11B
  8
DXF_I3-PLATE_MODEL_LAYER_0
 62
   150
 10
343.0791448494014
 20
48.69608014436204
 30
0.0
 40
1.971628176306467
  0
CIRCLE
  5
11C
  8
DXF_I3-PLATE_MODEL_LAYER_0
 62
   150
 10
133.0793876862006
 20
48.69608014436204
 30
0.0
 40
1.971628176306382
  0
CIRCLE
  5
11D
  8
DXF_I3-PLATE_MODEL_LAYER_0
 62
   150
 10
238.1043293374911
 20
53.02690970896612
 30
0.0
 40
1.971628176302517
  0
CIRCLE
  5
11E
  8
DXF_I3-PLATE_MODEL_LAYER_0
 62
   150
 10
238.1043293374911
 20
81.01520991058872
 30
0.0
 40
1.971628176302517
  0
CIRCLE
  5
11F
  8
DXF_I3-PLATE_MODEL_LAYER_0
 62
   150
 10
203.4702676900129
 20
223.9107081930127
 30
0.0
 40
1.971628176302517
  0
CIRCLE
  5
120
  8
DXF_I3-PLATE_MODEL_LAYER_0
 62
   150
 10
203.4702676900129
 20
251.8990083946353
 30
0.0
 40
1.971628176302517
  0
CIRCLE
  5
121
  8
DXF_I3-PLATE_MODEL_LAYER_0
 62
   150
 10
272.1043211909061
 20
223.9107081930127
 30
0.0
 40
1.971628176302488
  0
CIRCLE
  5
122
  8
DXF_I3-PLATE_MODEL_LAYER_0
 62
   150
 10
272.1043211909061
 20
251.8990083946353
 30
0.0
 40
1.971628176302488
  0
ARC
  5
123
  8
DXF_I3-PLATE_MODEL_LAYER_0
 62
   150
 10
35.13364495736906
 20
313.6958393584251
 30
0.0
 40
3.945451170953944
 50
291.4895848579047
 51
68.51041514209516
  0
ARC
  5
124
  8
DXF_I3-PLATE_MODEL_LAYER_0
 62
   150
 10
35.02434656154979
 20
313.6958393584251
 30
0.0
 40
3.945451170953948
 50
111.4895848579049
 51
248.5104151420952
  0
ARC
  5
125
  8
DXF_I3-PLATE_MODEL_LAYER_0
 62
   150
 10
35.133644957369
 20
-16.30434502088047
 30
0.0
 40
3.945451170953964
 50
291.4895848579048
 51
68.5104151420947
  0
ARC
  5
126
  8
DXF_I3-PLATE_MODEL_LAYER_0
 62
   150
 10
35.02434656154978
 20
-16.30434502088047
 30
0.0
 40
3.945451170953964
 50
111.489584857905
 51
248.5104151420951
  0
CIRCLE
  5
127
  8
DXF_I3-PLATE_MODEL_LAYER_0
 62
   150
 10
45.07907442448841
 20
313.6959254858144
 30
0.0
 40
1.842092555965458
  0
CIRCLE
  5
128
  8
DXF_I3-PLATE_MODEL_LAYER_0
 62
   150
 10
65.05649412435834
 20
323.695831896071
 30
0.0
 40
1.842092555965465
  0
CIRCLE
  5
129
  8
DXF_I3-PLATE_MODEL_LAYER_0
 62
   150
 10
65.05649412435834
 20
303.6958468207836
 30
0.0
 40
1.842092555965465
  0
CIRCLE
  5
12A
  8
DXF_I3-PLATE_MODEL_LAYER_0
 62
   150
 10
45.0790744244884
 20
-16.28841145426285
 30
0.0
 40
1.842092555965458
  0
CIRCLE
  5
12B
  8
DXF_I3-PLATE_MODEL_LAYER_0
 62
   150
 10
65.05649412435832
 20
-6.288505044006298
 30
0.0
 40
1.842092555965465
  0
CIRCLE
  5
12C
  8
DXF_I3-PLATE_MODEL_LAYER_0
 62
   150
 10
65.05649412435832
 20
-26.28849011929357
 30
0.0
 40
1.842092555965465
  0
ARC
  5
12D
  8
DXF_I3-PLATE_MODEL_LAYER_0
 62
   150
 10
133.8026855134243
 20
-23.89656032388698
 30
0.0
 40
1.659502495244849
 50
270.000000000001
 51
89.99999999999902
  0
ARC
  5
12E
  8
DXF_I3-PLATE_MODEL_LAYER_0
 62
   150
 10
84.56951495281595
 20
-23.89656032388697
 30
0.0
 40
1.659502495244849
 50
90.0
 51
270.0
  0
CIRCLE
  5
12F
  8
DXF_I3-PLATE_MODEL_LAYER_0
 62
   150
 10
385.0789929922504
 20
-26.30433755852832
 30
0.0
 40
1.800062391042729
  0
CIRCLE
  5
130
  8
DXF_I3-PLATE_MODEL_LAYER_0
 62
   150
 10
385.0789929922504
 20
-6.304180228458154
 30
0.0
 40
1.800062391042729
  0
CIRCLE
  5
131
  8
DXF_I3-PLATE_MODEL_LAYER_0
 62
   150
 10
385.0789929922504
 20
303.6808606554188
 30
0.0
 40
1.800062391042729
  0
CIRCLE
  5
132
  8
DXF_I3-PLATE_MODEL_LAYER_0
 62
   150
 10
385.0789929922504
 20
323.6810179854891
 30
0.0
 40
1.800062391042729
  0
CIRCLE
  5
133
  8
DXF_I3-PLATE_MODEL_LAYER_0
 62
   150
 10
206.3589802611289
 20
329.9559149023179
 30
0.0
 40
2.207789441720223
  0
CIRCLE
  5
134
  8
DXF_I3-PLATE_MODEL_LAYER_0
 62
   150
 10
200.0044575306559
 20
281.6815928659099
 30
0.0
 40
2.207789441720251
  0
CIRCLE
  5
135
  8
DXF_I3-PLATE_MODEL_LAYER_0
 62
   150
 10
125.078842470888
 20
281.6815928659099
 30
0.0
 40
2.207789441720237
  0
CIRCLE
  5
136
  8
DXF_I3-PLATE_MODEL_LAYER_0
 62
   150
 10
125.0790147256801
 20
329.9555703927727
 30
0.0
 40
2.207789441720237
  0
ARC
  5
137
  8
DXF_I3-PLATE_MODEL_LAYER_0
 62
   150
 10
45.07907442449412
 20
233.6958129298573
 30
0.0
 40
3.999928113149281
 50
90.0
 51
270.0
  0
ARC
  5
138
  8
DXF_I3-PLATE_MODEL_LAYER_0
 62
   150
 10
45.0790744244941
 20
63.6958536624615
 30
0.0
 40
3.999928113149281
 50
90.0
 51
270.0
  0
CIRCLE
  5
139
  8
DXF_I3-PLATE_MODEL_LAYER_0
 62
   150
 10
107.5789631892522
 20
208.9081786587128
 30
0.0
 40
1.971628176306396
  0
CIRCLE
  5
13A
  8
DXF_I3-PLATE_MODEL_LAYER_0
 62
   150
 10
87.57897811395144
 20
208.9081786587128
 30
0.0
 40
1.971628176306396
  0
CIRCLE
  5
13B
  8
DXF_I3-PLATE_MODEL_LAYER_0
 62
   150
 10
35.07899575946409
 20
37.6958902900549
 30
0.0
 40
1.971628176306396
  0
CIRCLE
  5
13C
  8
DXF_I3-PLATE_MODEL_LAYER_0
 62
   150
 10
55.10120170063522
 20
37.6958902900549
 30
0.0
 40
1.971628176306396
  0
ARC
  5
13D
  8
DXF_I3-PLATE_MODEL_LAYER_0
 62
   150
 10
87.57897811395591
 20
103.8905698355623
 30
0.0
 40
3.999928113149288
 50
0.0
 51
180.0
  0
ARC
  5
13E
  8
DXF_I3-PLATE_MODEL_LAYER_0
 62
   150
 10
107.5791354440254
 20
103.8905698355623
 30
0.0
 40
3.999928113149288
 50
0.0
 51
180.0
  0
VIEWPORT
  5
45
 67
     1
  8
0
 10
0.0
 20
0.0
 30
0.0
 40
1.0
 41
1.0
 68
     1
 69
     1
1001
ACAD
1000
MVIEW
1002
{
1070
    16
1010
0.0
1020
0.0
1030
0.0
1020
0.0
1030
0.0
1010
0.0
1020
0.0
1030
1.0
1020
0.0
1030
1.0
1040
0.0
1040
1.0
1040
0.0
1040
0.0
1040
50.0
1040
0.0
1040
0.0
1070
     0
1070
   100
1070
     0
1070
     3
1070
     0
1070
     0
1070
     0
1070
     0
1040
0.0
1040
0.0
1040
0.0
1040
0.5
1040
0.5
1040
0.0
1040
0.0
1070
     0
1002
{
1002
}
1002
}
  0
ENDSEC
  0
EOF
